<?xml version="1.0" encoding="UTF-8"?>
<svg width="314px" height="217px" viewBox="0 0 314 217" version="1.1" xmlns="http://www.w3.org/2000/svg" xmlns:xlink="http://www.w3.org/1999/xlink">
    <!-- Generator: Sketch 53.2 (72643) - https://sketchapp.com -->
    <title>Combined Shape</title>
    <desc>Created with Sketch.</desc>
    <g id="Page-1" stroke="none" stroke-width="1" fill="none" fill-rule="evenodd">
        <path d="M236.962911,200.032 L236.962911,202.6454 C236.225911,205.8811 235.121911,208.4529 233.647911,210.3607 C234.955911,211.6046 236.594911,212.5597 238.558911,213.2221 C238.393911,213.4717 238.190911,213.8445 237.944911,214.3428 C237.453911,215.0891 237.125911,215.6283 236.962911,215.9603 C234.832911,214.7972 233.114911,213.6373 231.805911,212.4758 C230.249911,213.8021 228.162911,215.0891 225.543911,216.333 C225.133911,215.5867 224.561911,214.7164 223.825911,213.7205 C226.689911,212.5597 228.694911,211.4398 229.841911,210.3607 C228.530911,208.6185 227.507911,206.2131 226.771911,203.143 L227.631911,202.8942 L226.403911,202.8942 L226.403911,200.032 L236.962911,200.032 Z M48.903211,186.5524 L48.903211,216.0196 L45.484511,216.0196 L45.484511,210.6278 C42.961411,211.6306 40.479011,212.4672 38.037411,213.1355 L37.304411,209.75 C39.746711,209.0818 42.473211,208.2451 45.484511,207.2424 L45.484511,197.8372 L37.670911,197.8372 L37.670911,194.5767 L45.484511,194.5767 L45.484511,186.5524 L48.903211,186.5524 Z M134.442311,188.4332 L134.442311,191.539 L127.445611,191.539 C127.363611,191.7882 127.240511,192.2035 127.077111,192.7819 C126.340911,194.937 125.727011,196.4691 125.236211,197.3805 L126.831711,197.3805 L126.831711,199.9894 L129.041111,198.3734 C130.923111,200.7778 133.050411,203.5927 135.423911,206.8231 L132.846811,209.0605 C131.619011,207.2392 129.900411,204.7111 127.691011,201.4807 C127.280711,200.9831 126.995111,200.6108 126.831711,200.3616 L126.831711,216.0196 L123.517611,216.0196 L123.517611,200.8593 C121.962411,203.7597 119.875311,206.6585 117.257111,209.5581 C116.929611,209.0605 116.275511,208.2329 115.293911,207.0723 C115.211011,206.9908 115.128211,206.9077 115.047711,206.8231 C119.221111,202.5168 122.207711,197.4221 124.008411,191.539 L117.380211,191.539 L117.380211,188.4332 L134.442311,188.4332 Z M226.019911,187.8063 L226.019911,198.0772 L219.585911,198.0772 L219.585911,201.1708 L225.153911,201.1708 L225.153911,203.8928 L219.585911,203.8928 L219.585911,206.9864 L225.524911,206.9864 L225.524911,209.8325 L219.585911,209.8325 L219.585911,216.0196 L216.615911,216.0196 L216.615911,187.8063 L226.019911,187.8063 Z M212.689911,186.2389 L215.674911,186.987 C215.177911,188.8989 214.596911,190.8501 213.933911,192.8438 L213.933911,216.0196 L211.072911,216.0196 L211.072911,199.9461 C210.326911,201.4408 209.580911,202.8545 208.833911,204.1818 C208.750911,203.7677 208.625911,203.1854 208.459911,202.438 C208.211911,201.3591 208.003911,200.5685 207.837911,200.0703 C209.910911,196.3321 211.527911,191.7216 212.689911,186.2389 Z M192.213611,185.9254 L192.962611,188.9227 L204.075911,188.9227 L204.075911,191.6695 L179.850911,191.6695 L179.850911,200.2858 C180.017011,207.3624 178.976711,212.6049 176.729111,216.0196 C176.395911,215.7699 175.980111,215.4368 175.480011,215.0202 C174.813011,214.5217 174.313711,214.1469 173.982111,213.8972 C175.146911,211.8993 175.896611,209.9848 176.229711,208.1531 C176.561311,206.4048 176.729111,203.6997 176.729111,200.0361 L176.729111,188.9227 L189.091811,188.9227 L188.342111,186.175 L192.213611,185.9254 Z M97.806211,195.9568 L97.806211,205.7402 L88.679011,205.7402 L88.679011,211.8089 C88.843111,214.4504 87.527111,215.8126 84.732311,215.8954 C84.320011,215.8954 83.662711,215.936 82.758911,216.0196 L80.785511,216.0196 C80.703111,214.8621 80.456511,213.7905 80.045811,212.7993 L81.155711,212.7993 C82.059611,212.8805 82.800111,212.8805 83.375711,212.7993 C84.773511,212.8805 85.430011,212.3463 85.349111,211.1896 L85.349111,205.7402 L75.235611,205.7402 L75.235611,195.9568 L97.806211,195.9568 Z M200.393911,204.1073 L200.393911,206.7812 C198.647311,208.6464 196.732911,210.1849 194.654011,211.4008 C196.567611,211.9688 199.602911,212.415 203.762911,212.7377 C203.263911,213.7903 202.805911,214.8037 202.390911,215.7766 C197.481211,215.0467 193.738011,214.0747 191.161011,212.8596 C188.416411,214.1544 184.755111,215.2085 180.180911,216.0196 C179.682111,215.1272 179.183211,214.1966 178.684311,213.2238 C182.259911,212.7377 185.338111,212.1298 187.916711,211.4008 C186.002311,210.0239 184.298711,208.4432 182.802111,206.6601 L180.805011,206.6601 L180.805011,204.1073 L200.393911,204.1073 Z M160.934911,186.8658 L160.934911,192.1647 L169.408611,192.1647 L169.408611,194.9995 L160.934911,194.9995 L160.934911,195.7395 C161.016611,195.9051 161.100711,196.1087 161.184011,196.3559 C161.764811,198.6575 162.347211,200.3 162.928711,201.2856 C164.341011,199.7263 165.670011,198.2043 166.916511,196.7251 L169.408611,198.6972 C167.165611,200.9987 165.420911,202.6832 164.174411,203.7504 C165.586711,206.052 167.496511,208.1872 169.906911,210.1593 C169.739511,210.4064 169.450211,210.8992 169.034511,211.6385 C168.617911,212.2968 168.328711,212.7477 168.162911,212.9949 C164.755211,209.9556 162.347211,206.6272 160.934911,203.0112 L160.934911,211.6385 C161.100711,214.2673 159.730111,215.5825 156.822211,215.5825 C155.907411,215.6633 154.745011,215.7061 153.332711,215.7061 C153.166111,214.5541 152.959411,213.5273 152.710311,212.6241 C153.041211,212.6241 153.582611,212.6653 154.330011,212.7477 L155.700711,212.7477 C157.196311,212.8285 157.901311,212.174 157.819511,210.7757 L157.819511,206.4624 C157.153911,206.9544 156.116511,207.654 154.704211,208.5572 C153.125211,209.626 151.962111,210.4484 151.214711,211.0228 L149.844111,207.9408 C151.206551,207.15232 152.449167,206.422784 153.572202,205.752294 L154.392061,205.2605 C155.721136,204.4593 156.863461,203.7504 157.819511,203.134 L157.819511,194.9995 L150.467311,194.9995 L150.467311,192.1647 L157.819511,192.1647 L157.819511,186.8658 L160.934911,186.8658 Z M57.523111,186.5524 L57.523111,196.1577 C60.007311,194.7621 62.448611,193.2849 64.849811,191.7239 L66.837611,194.6797 C63.360211,196.7324 60.255611,198.4565 57.523111,199.8521 L57.523111,209.5801 C57.440811,211.1403 58.144111,211.8789 59.634611,211.7966 L60.627711,211.7966 C62.199511,211.962 63.068911,211.0999 63.235711,209.2112 C63.483911,207.8979 63.649211,206.378 63.733011,204.6539 C65.055811,205.0663 66.173511,205.4352 67.085111,205.7622 C67.057711,205.981733 67.0210777,206.255711 66.9752147,206.584252 L66.9157492,207.004699 C66.8305555,207.600235 66.7217377,208.335573 66.589311,209.2112 C66.505511,209.9497 66.421711,210.5244 66.340311,210.9345 C65.925211,213.6441 64.105011,214.9155 60.876711,214.7516 L58.765211,214.7516 C55.453111,214.8332 53.838911,213.2745 53.921911,210.0724 L53.921911,186.5524 L57.523111,186.5524 Z M79.386111,206.6151 L81.505211,209.0162 C79.926111,210.1976 77.473711,211.7561 74.151211,213.6925 C73.652811,214.0289 73.278711,214.2816 73.030311,214.4522 C72.862111,214.1987 72.572811,213.7347 72.157811,213.0611 C71.740411,212.4704 71.409511,212.0503 71.160311,211.7976 C74.650311,209.9441 77.391911,208.2159 79.386111,206.6151 Z M270.972911,188.4332 L270.972911,191.6246 L247.900911,191.6246 L247.900911,211.6301 L271.474911,211.6301 L271.474911,214.4522 L244.514911,214.4522 L244.514911,188.4332 L270.972911,188.4332 Z M92.766911,206.9286 C96.068311,208.7523 98.793311,210.2851 100.941011,211.5278 L99.083011,214.1387 C97.430411,213.0606 95.037311,211.6948 91.900011,210.0366 C91.486011,209.7872 91.157211,209.5818 90.909611,209.4148 L92.766911,206.9286 Z M149.719111,189.0602 L149.719111,192.0466 L146.479111,192.0466 L146.479111,199.0155 L149.345711,199.0155 L149.345711,202.0027 L146.479111,202.0027 L146.479111,209.5948 L146.728311,209.5948 C148.140711,209.4291 149.177511,209.2635 149.844111,209.0964 L149.844111,212.3324 C147.102411,212.5804 143.819211,213.0788 139.998311,213.8252 L139.499211,210.59 L143.363311,210.0916 L143.363311,202.0027 L140.122511,202.0027 L140.122511,199.0155 L143.363311,199.0155 L143.363311,192.0466 L139.873311,192.0466 L139.873311,189.0602 L149.719111,189.0602 Z M116.301611,188.7467 L116.301611,191.8422 L112.916211,191.8422 L112.916211,198.5292 L116.176711,198.5292 L116.176711,201.5005 L112.916211,201.5005 L112.916211,209.1777 L116.301611,208.5584 L116.301611,211.7781 C115.882511,211.8617 115.298911,211.9444 114.546111,212.0256 C110.866511,212.602 108.067811,213.0978 106.145411,213.5117 L105.643311,210.4162 L109.656511,209.7969 L109.656511,201.5005 L106.270311,201.5005 L106.270311,198.5292 L109.656511,198.5292 L109.656511,191.8422 L106.019711,191.8422 L106.019711,188.7467 L116.301611,188.7467 Z M265.305911,192.195 L268.286911,194.0827 C268.119911,194.3343 267.870911,194.6707 267.541911,195.0889 C265.305911,197.9414 263.524911,200.0386 262.199911,201.3796 C262.282911,201.4637 262.405911,201.5899 262.572911,201.7565 C264.808911,203.6879 267.045911,205.7835 269.279911,208.0481 L266.547911,210.5642 L259.839911,203.7696 C257.024911,206.4556 254.415911,208.7622 252.014911,210.6904 C251.518911,210.1048 250.689911,209.224 249.530911,208.0481 C252.676911,205.7835 255.284911,203.6038 257.356911,201.5058 C255.036911,199.1579 252.676911,196.9345 250.276911,194.8373 L252.759911,192.6981 C255.160911,194.7961 257.480911,196.9345 259.715911,199.115 C261.703911,197.0194 263.566911,194.7112 265.305911,192.195 Z M196.552711,206.6151 L186.521311,206.6151 C187.857011,208.0126 189.446511,209.1608 191.286011,210.0634 C193.459111,208.9976 195.214711,207.8464 196.552711,206.6151 Z M234.170911,202.8534 L229.467911,202.8534 C230.059911,204.92 230.865911,206.6951 231.882911,208.1825 C232.899911,206.6951 233.661911,204.92 234.170911,202.8534 Z M153.077011,196.5837 C154.234411,198.2595 155.351911,199.9761 156.427211,201.7311 L153.822011,203.1668 C152.746011,201.3318 151.629311,199.576 150.471011,197.9002 L153.077011,196.5837 Z M94.671411,198.4646 L78.683911,198.4646 L78.683911,202.8534 L94.671411,202.8534 L94.671411,198.4646 Z M187.218111,191.8815 L187.218111,194.4208 L195.238111,194.4208 L195.238111,191.8815 L198.323611,191.8815 L198.323611,194.4208 L203.135911,194.4208 L203.135911,197.2155 L198.323611,197.2155 L198.323611,201.9129 L184.133411,201.9129 L184.133411,197.2155 L179.938211,197.2155 L179.938211,194.4208 L184.133411,194.4208 L184.133411,191.8815 L187.218111,191.8815 Z M195.298811,197.2107 L187.148311,197.2107 L187.148311,199.7186 L195.298811,199.7186 L195.298811,197.2107 Z M236.677911,188.1198 L236.677911,198.1511 L227.586911,198.1511 L227.586911,195.3926 L233.814911,195.3926 L233.814911,191.0033 L227.586911,191.0033 L227.586911,188.1198 L236.677911,188.1198 Z M223.198911,190.3141 L219.436911,190.3141 L219.436911,195.0163 L223.198911,195.0163 L223.198911,190.3141 Z M87.615711,186.2389 C87.697811,186.4833 87.822511,186.8485 87.990611,187.3359 C88.157911,187.6619 88.448311,188.5145 88.867411,189.896 L101.254511,189.896 L101.254511,192.822 L71.473811,192.822 L71.473811,189.896 L84.987911,189.896 C84.904311,189.4901 84.694411,188.9212 84.362111,188.1893 C84.112011,187.4574 83.903611,186.9308 83.736311,186.6048 L87.615711,186.2389 Z M164.299411,187.3579 C164.630311,187.605 165.088411,188.017 165.670011,188.5907 C166.667311,189.4954 167.372311,190.1118 167.788811,190.4391 L165.670011,192.1647 C165.337611,191.8375 164.797711,191.3027 164.050211,190.5627 C163.219511,189.8227 162.596311,189.249 162.181311,188.8371 L164.299411,187.3579 Z M228.570911,128.8949 C213.708911,154.4543 186.029611,171.6398 154.332811,171.6398 C122.636711,171.6398 94.957411,154.4543 80.095011,128.8949 C96.307911,151.4381 123.508011,166.2277 154.332811,166.2277 C185.158211,166.2277 212.357911,151.4381 228.570911,128.8949 Z M180.369611,126.222 C180.802311,126.3721 181.311211,127.0468 181.540711,127.1732 C181.770711,127.2995 181.979911,127.1863 182.236811,127.3412 C182.493711,127.4962 182.441211,127.8567 182.590211,127.9145 C182.739811,127.9723 183.244011,127.9133 183.426411,128.023 C183.608711,128.1321 183.725511,128.4229 183.939511,128.4205 C184.153411,128.4181 184.478211,128.1172 184.695811,128.1172 C184.821982,128.1172 184.920089,128.308514 185.022498,128.473128 L185.074211,128.5522 L185.536711,128.5606 C185.732211,128.3967 185.953911,128.1511 186.114211,128.1386 C186.358511,128.1201 186.740511,128.3591 186.649411,128.582 C186.574311,128.8645 186.324511,129.1619 186.175011,129.3276 C185.745311,129.802 185.126711,130.2007 184.579611,130.5213 C184.007411,130.8562 183.983011,131.5702 183.599211,132.0547 C183.269011,132.4719 182.825011,132.7288 182.338711,132.9082 C182.476411,133.0572 182.614011,133.2062 182.754111,133.354 C182.925711,133.5346 183.083111,133.7384 183.329811,133.8194 C183.505611,133.8772 183.698111,133.8695 183.871511,133.938 C184.130811,134.0399 184.317311,134.2574 184.426411,134.506 C184.569411,134.8314 184.716011,135.1055 184.997911,135.3344 C185.070486,135.39355 185.138586,135.457506 185.204456,135.523781 L185.590884,135.929356 L185.797711,136.1157 C186.043911,136.3118 186.321611,136.4572 186.527811,136.7045 C186.763811,136.9888 187.099311,137.7272 187.712611,137.7272 C188.174511,137.7272 189.160811,136.9262 189.514211,136.4739 C190.210911,135.5799 190.776511,134.6419 191.301511,133.6389 C191.445111,133.3635 191.596511,133.112 191.681711,132.811 C191.767611,132.5101 191.778311,132.2252 191.834911,131.9207 C191.908211,131.5285 192.217511,131.1691 192.444611,130.8539 C192.631111,130.5946 193.013111,130.2418 193.051311,129.92 C193.075711,129.715 193.020311,129.5702 193.120411,129.3753 C193.228311,129.1649 193.377311,128.9503 193.540011,128.7477 C193.793311,128.3663 195.300511,126.0372 195.678311,126.3114 C196.133111,126.6427 195.335111,127.7995 195.501911,128.2244 C195.657511,128.6207 195.392911,129.1685 195.516811,129.2918 C195.675911,129.4515 195.491811,130.0159 195.408911,130.2817 C195.317811,130.5744 195.185511,130.8521 195.084711,131.1423 C194.963211,131.4921 194.928611,131.8313 194.963211,132.2002 C194.991811,132.5131 195.100811,132.6358 195.396411,132.7014 C195.463211,132.7163 195.556211,132.7282 195.614611,132.7628 C195.763011,132.8515 195.846411,133.0578 195.911411,133.2079 C196.114611,133.6847 196.102711,134.1412 195.862511,134.5978 C195.684311,134.9369 195.515611,135.1717 195.496611,135.5764 C195.485811,135.8195 195.472111,136.0579 195.442311,136.2998 C195.359511,136.9626 195.299311,137.5824 195.058511,138.2099 C194.939911,138.5181 194.686611,138.8274 194.686611,139.1659 C194.686011,139.452 194.827911,139.7434 194.951311,139.9931 C195.099011,140.2941 195.276111,140.5581 195.519211,140.7869 C195.675911,140.9341 195.863711,141.1022 195.953111,141.3024 C196.199211,141.8525 195.740311,143.5635 195.755811,143.8693 C195.765311,144.0534 195.832111,144.0856 195.935211,144.144 C196.076411,144.2251 196.142011,144.3103 196.173011,144.4813 C196.218911,144.7424 196.062711,145.0088 195.975711,145.246 C195.900611,145.451 195.853011,145.6173 195.969811,145.8259 C196.028811,145.9302 196.160511,146.0196 196.202811,146.1298 C196.273111,146.3146 196.204011,146.5857 196.148511,146.7645 C196.047311,147.0905 195.958411,147.4195 195.855911,147.7461 C195.661611,148.3671 194.578811,149.3564 194.101411,150.2736 C193.776611,150.8982 193.330811,151.5353 192.853411,152.049 C192.295611,152.6491 191.707411,153.2189 191.095911,153.763 C190.542211,154.2553 189.903411,154.6576 189.299011,155.0837 C188.636911,155.5503 187.955111,156.0206 187.270411,156.4526 C186.558211,156.902 185.892511,157.4116 185.189211,157.8722 C184.539011,158.2978 182.259511,160.0034 181.263011,160.4653 C180.561511,160.7907 179.161611,160.8902 178.669911,161.1143 C178.170511,161.3426 177.705011,161.6465 177.191911,161.8491 C176.981511,161.9326 176.889111,161.96 176.686511,161.8438 C176.682936,161.841717 176.677267,161.836644 176.669615,161.829188 L176.600824,161.760669 C176.464661,161.629475 176.186186,161.40305 175.847411,161.522 C175.586911,161.6131 175.351511,161.7717 175.099511,161.8837 C174.865811,161.9874 174.633411,162.1519 174.385511,162.2151 C174.221011,162.2562 174.129811,162.2175 173.973111,162.1305 C173.799611,162.0339 173.728711,161.9272 173.503411,161.8629 C173.370511,161.8247 173.219811,161.8325 173.084511,161.8211 C172.802611,161.7979 172.510511,161.7836 172.231011,161.7377 C172.083211,161.7139 171.914011,161.6787 171.812111,161.5571 C171.493211,161.1751 171.899711,160.9337 172.071911,160.6417 C172.242411,160.3533 172.088011,159.9969 171.781711,159.9325 C171.604711,159.8956 171.338311,159.8872 171.310811,159.7764 C171.282911,159.6655 171.353211,159.5219 171.474111,159.423 C171.647611,159.2817 171.728611,159.1518 171.644611,159.0159 C171.560611,158.88 171.189911,159.0886 171.080811,159.0868 C170.617711,159.0808 171.097511,158.5916 171.242311,158.498 C171.511111,158.3246 171.777511,158.1786 172.021911,157.9712 C172.087411,157.9151 172.155911,157.8669 172.223911,157.8144 C172.299611,157.7548 172.575511,157.5832 172.608911,157.4896 C172.749511,157.0838 172.144011,157.3055 172.018911,157.3698 C171.923511,157.4187 171.829911,157.4747 171.737011,157.5272 C171.424711,157.703 171.145811,157.8782 170.813211,158.0135 C170.558711,158.1166 170.270311,158.1827 170.032511,158.318 C169.762511,158.47 169.547411,158.6935 169.303611,158.8806 C168.981211,159.1267 168.746411,159.1279 168.725511,158.6804 C168.717211,158.492 168.700511,158.3025 168.689811,158.1142 C168.681411,157.9616 168.660011,157.7864 168.560411,157.6618 C168.501411,157.588 168.399511,157.5468 168.339311,157.4652 C168.191511,157.2649 168.230911,157.0385 168.189111,156.806 C168.120011,156.4282 167.803011,156.2923 167.444211,156.1934 C167.122411,156.1052 166.820811,156.2089 166.497811,156.1028 C166.266011,156.0265 166.053811,155.8936 165.842211,155.7756 C165.482911,155.5759 165.151511,155.4722 164.755811,155.4532 C164.444711,155.4722 164.134211,155.4836 163.826611,155.48 C162.789111,155.4699 158.740611,155.8954 156.720911,155.9234 C156.322811,155.9288 155.934211,155.8996 155.537911,155.8996 C155.014611,155.9002 154.597411,156.017 154.255311,156.4151 C154.077111,156.6225 153.869111,156.8662 153.620611,156.995 C153.048511,157.2912 152.403611,156.7858 151.912011,156.5599 C151.211711,156.2387 150.392311,156.051 149.630011,155.9997 C148.763511,155.9419 147.773011,155.7518 146.958911,156.1284 C146.359911,156.4055 145.813411,156.6743 145.131611,156.6046 C144.642911,156.5545 144.169111,156.4657 143.691111,156.3626 C143.635111,156.3507 143.579711,156.3388 143.530211,156.3203 C143.319211,156.2774 143.121411,156.1981 142.967611,156.0533 C142.748911,155.8465 142.602911,155.6266 142.326411,155.4812 C142.144011,155.3853 141.953911,155.3632 141.772111,155.2762 C141.523011,155.157 141.227411,154.8959 141.331711,154.5789 C141.431811,154.2768 141.974211,154.2398 142.206611,154.0926 C142.570711,153.8625 142.702411,153.4376 142.785311,153.03 C142.891911,152.5037 142.784711,151.953 142.667911,151.4357 C142.564811,150.9786 142.376411,150.4893 142.428911,150.0191 C142.484311,149.5227 142.537311,149.1258 142.425911,148.6341 C142.417011,148.5965 142.406211,148.5584 142.394311,148.5202 C142.265011,148.23 142.101711,147.9469 141.968811,147.705 C141.754211,147.3134 141.609411,146.8688 141.481911,146.4415 C141.362711,146.0422 141.097511,144.7543 141.379411,144.293 C141.542111,144.0266 141.933011,144.2853 142.140411,144.3937 C142.203011,144.4271 142.430111,144.622 142.622611,144.5141 C142.815111,144.4075 142.543311,144.0392 142.508711,143.9777 C142.419311,143.8186 141.989711,143.001 141.958111,142.2572 C141.942011,141.874 142.127911,141.4902 142.347211,141.1904 C142.545111,140.9204 142.765011,140.66 142.831211,140.3203 C142.859811,140.1713 142.862811,140.0217 142.899711,139.8733 C143.015911,139.4156 143.169111,139.1605 143.520711,138.8518 C143.547511,138.8286 143.578511,138.828 143.604111,138.8399 C143.695911,138.8155 143.785311,138.8685 143.838311,139.0634 C143.893811,139.269 143.808611,139.7374 144.272211,139.2988 C144.332411,139.2416 144.377111,139.1414 144.430211,139.0759 C144.623811,138.8369 144.837211,138.7392 145.126211,138.6605 C145.715111,138.499 146.290211,138.266 146.865311,138.0615 C147.453511,137.8529 148.088811,137.5347 148.712211,137.4602 C149.005411,137.4256 149.138311,137.524 149.366611,137.6914 C149.652111,137.8994 149.891011,138.0556 150.255811,138.0806 C150.640211,138.108 151.025811,137.9668 151.391711,137.8625 C151.727811,137.7677 152.065111,137.6801 152.407811,137.6122 C152.715311,137.5514 153.039511,137.5049 153.353011,137.5347 C153.744011,137.5723 154.127211,137.6861 154.520611,137.6914 C155.177911,137.701 155.899611,137.6795 156.498011,137.3815 C156.987911,137.1378 157.601111,136.5031 157.897911,136.2957 C158.424111,135.9286 159.195311,135.6485 159.254311,135.6264 C159.283011,135.4804 159.285311,135.3189 159.291911,135.1991 C159.304411,134.9917 159.307411,134.7819 159.347911,134.5775 C159.417611,134.2271 159.705511,134.009 159.966511,133.7854 C160.274711,133.5208 160.660811,133.1919 161.036311,133.0363 C161.179911,132.9767 161.313411,132.9851 161.380211,133.146 C161.440411,133.2914 161.435011,133.5816 161.436211,133.7318 C161.438611,134.0477 161.569111,134.5507 161.744911,134.7229 C162.032211,135.0054 162.380211,134.5459 162.373111,134.3045 C162.361211,133.9231 161.983311,133.6555 162.043511,133.2628 C162.073911,133.0679 162.199611,132.8546 162.383811,132.7717 C162.581111,132.6829 162.758611,132.7789 162.913011,132.9064 C163.178211,133.1245 163.370711,133.4147 163.752111,133.3975 C164.014411,133.385 164.040011,133.1835 164.078711,132.9636 C164.110311,132.7824 164.137111,132.6048 164.179511,132.426 C164.252211,132.1245 164.363011,131.9183 164.603811,131.7192 C165.087111,131.3205 165.650911,131.0154 166.153911,130.6387 C166.363711,130.4814 166.671811,130.1703 166.963811,130.1935 C167.271411,130.218 167.459111,130.2037 167.610511,130.0368 C167.682611,129.9575 167.702211,129.8294 167.779711,129.7519 C167.952011,129.5791 168.235611,129.6107 168.457911,129.6458 C168.526644,129.656933 168.591422,129.672822 168.653993,129.698267 L168.835966,129.789574 C169.006403,129.859633 169.125925,129.811143 169.214811,129.7448 C169.447811,129.5702 169.618311,129.5332 169.869211,129.6852 C170.076611,129.8103 170.338811,130.4808 170.865111,131.0177 C170.949111,131.1036 171.027811,131.2001 171.116011,131.2812 C171.333511,131.482 171.495611,131.4874 171.764411,131.5297 C171.979511,131.5643 172.192911,131.6304 172.394311,131.7145 C172.571311,131.7877 172.697111,131.876 172.821611,132.0202 C172.935511,132.1519 172.995611,132.2979 173.215611,132.3116 C173.249511,132.3134 173.281711,132.311 173.314511,132.3062 C173.406911,132.2097 173.481411,132.0953 173.534411,131.9624 C173.559411,131.8992 173.601211,131.8128 173.610711,131.7466 C173.642311,131.5297 173.551111,131.4588 173.448611,131.3068 C173.406311,131.2442 173.384211,131.2001 173.382511,131.128 C173.373511,130.6304 174.141711,130.4891 174.363411,130.1339 C174.468911,129.9653 174.448011,129.6607 174.619711,129.5427 C174.684111,129.498 174.751411,129.5118 174.823511,129.4986 C175.131011,129.4408 175.174511,129.3264 175.269911,129.0654 C175.345011,128.8591 175.437911,128.7036 175.586911,128.5492 C175.626911,128.5081 175.675211,128.4646 175.725811,128.4205 C175.886711,128.2596 176.108411,128.3121 176.219311,128.3091 C176.329511,128.3061 176.438011,128.0188 176.584611,128.0129 C176.965411,127.9968 177.129311,127.7798 177.451211,127.6285 C177.657411,127.5319 178.637111,127.7375 179.069211,127.8377 C179.501311,127.9378 180.131211,128.0254 180.254011,127.7327 C180.376811,127.4395 180.359511,126.9467 180.055511,126.75 C179.751611,126.5527 179.252211,126.6844 179.266511,126.3251 C179.280811,125.9651 179.937511,126.0718 180.369611,126.222 Z M170.248211,159.7138 C170.373411,159.7281 170.468111,159.793 170.496111,159.9546 C170.505111,160.0058 170.464011,160.1483 170.344211,160.1512 C170.171911,160.156 170.023511,160.1721 169.855511,160.2281 C169.747611,160.2633 169.641511,160.3098 169.531311,160.3384 C169.404311,160.3717 169.194611,160.3467 169.139711,160.153 C169.084311,159.9575 169.312011,159.8503 169.435311,159.8211 C169.539011,159.7966 170.122511,159.7007 170.248211,159.7138 Z M185.514611,131.2198 C185.677911,131.5035 185.151711,131.5845 185.091511,131.7651 C185.082931,131.79096 185.079523,131.816512 185.07878,131.841822 L185.086241,131.991317 C185.086015,132.040536 185.076391,132.08932 185.037311,132.1382 C184.958611,132.2359 184.820911,132.2562 184.725611,132.1888 C184.544411,132.0607 184.697511,131.668 184.796511,131.513 C184.875811,131.3878 184.999711,131.3551 185.098611,131.2633 C185.223811,131.1477 185.440711,131.0911 185.514611,131.2198 Z M177.242611,125.958 C177.274711,125.9741 177.302211,125.9913 177.327811,126.0092 C177.557811,126.0211 177.786111,126.0116 178.014911,126.008 C178.079311,126.0044 178.143711,126.0009 178.208611,125.9991 C178.290911,125.9955 178.417811,125.9866 178.480411,126.067 C178.544811,126.1505 178.512011,126.2482 178.454211,126.3269 C178.407111,126.3924 178.370111,126.3984 178.308111,126.4449 C178.217611,126.514 178.148411,126.5551 178.065611,126.6481 C177.875511,126.8591 177.648411,127.1404 177.383811,126.933 C177.206211,126.7935 176.939211,126.4473 176.935011,126.2684 C176.929711,126.0241 177.014311,125.8429 177.242611,125.958 Z M176.185911,126.241 C176.250911,126.2911 176.247911,126.3602 176.285411,126.4294 C176.293811,126.4449 176.297411,126.4604 176.299111,126.4758 C176.328311,126.5051 176.351011,126.5414 176.375411,126.5819 C176.408211,126.6356 176.447511,126.6862 176.465411,126.75 C176.482111,126.8108 176.476111,126.8793 176.429011,126.9228 C176.372411,126.9747 176.318811,126.9521 176.260411,126.927 C176.147811,126.8787 176.017811,126.8388 175.961811,126.7029 C175.905211,126.5658 175.977311,126.3793 176.053611,126.2655 C176.085811,126.2178 176.144211,126.2083 176.185911,126.241 Z M154.332811,0 C189.544011,0 219.796911,21.2088 233.027911,51.5455 C223.944911,34.7344 209.267911,21.2052 191.391511,13.2448 C191.473811,13.4469 191.584011,13.7139 191.629311,13.7848 C191.741311,13.9606 191.873111,14.134 192.011911,14.2902 C192.101311,14.3903 192.235411,14.4714 192.309911,14.5822 C192.406511,14.7258 192.428511,14.9773 192.297411,15.109 C192.115011,15.2902 191.918311,15.0912 191.800911,14.944 C191.354611,14.3867 191.045911,13.6865 190.482111,13.2317 C190.167411,12.9778 189.811011,12.8253 189.446811,12.6572 C189.170911,12.5297 188.867011,12.373 188.569011,12.2728 C188.548111,12.5976 188.453411,12.9409 188.364611,13.2246 C188.229311,13.6561 188.018311,14.1376 187.750711,14.5035 C187.499211,14.848 187.130911,15.1567 186.795411,15.4178 C186.543911,15.6138 186.417511,15.8159 186.265011,16.0775 C186.213111,16.1651 186.168411,16.2593 186.080211,16.3165 C185.801311,16.4982 184.240511,16.6639 183.869111,16.5799 C183.415011,16.4768 183.114111,16.0352 182.651611,15.9571 C182.507911,15.9327 182.381011,15.9392 182.262411,15.9637 C181.779711,16.1532 181.338111,16.4011 180.935811,16.7378 C180.785611,16.8636 180.612211,17.0018 180.510311,17.1711 C180.350511,17.4369 180.502511,17.4727 180.498311,17.7164 C180.493611,18.0162 180.074011,18.2236 179.863011,18.3493 C179.563311,18.5275 179.230711,18.7147 178.900511,18.8309 C178.720011,18.8935 178.529811,18.9262 178.339711,18.9453 C178.141911,18.9644 177.960111,18.8964 177.930911,19.2516 C177.914211,19.4543 178.120411,19.608 178.287311,19.6706 C178.589411,19.7838 178.881511,19.8464 179.150311,20.0389 C179.415511,20.229 179.711111,20.5008 179.899411,20.7684 C180.003711,20.9168 180.031711,21.2392 180.208111,21.3072 C180.327311,21.3524 180.422611,21.2505 180.535911,21.2946 C180.652111,21.3393 180.792211,21.5873 180.845211,21.6576 C180.938211,21.7833 181.027611,21.9103 181.124111,22.0336 C181.303511,22.2631 181.513311,22.4907 181.602711,22.7727 C181.709911,23.1123 181.702811,23.4836 181.739811,23.8353 C181.773111,24.1559 181.823211,24.4694 181.631911,24.7549 C181.271311,25.2918 180.258211,25.3139 179.699811,25.184 C179.196111,25.0671 178.829611,25.1351 178.383211,25.4039 C178.072111,25.591 177.837911,25.6577 177.486311,25.5129 C177.265211,25.4217 176.846211,25.2811 176.833111,24.9992 C176.820611,24.7262 177.066711,24.352 177.170411,24.1118 C177.295611,23.8222 177.380211,23.5933 177.272911,23.2792 C177.187711,23.0307 177.084011,22.803 176.890911,22.6231 C176.721111,22.4657 176.570311,22.3876 176.582811,22.2333 C176.578611,22.2208 176.576311,22.2065 176.580411,22.1904 C176.625711,22.005 176.761011,21.8113 176.970811,21.8817 C177.084011,21.9192 177.181211,22.0152 177.271211,22.0896 C177.358811,22.1636 177.471411,22.2905 177.572711,22.1892 C177.674611,22.0879 177.107911,21.421 176.924311,21.2637 C176.727011,21.095 176.429611,20.9299 176.156111,20.9174 C175.973711,20.9084 175.790211,20.9746 175.611411,20.9973 C175.130411,21.0574 174.748411,20.7761 174.497511,20.3703 C174.348511,20.1295 174.543411,19.4525 174.582711,19.2963 C174.643511,19.0532 174.842611,18.984 174.532711,18.7415 C174.300211,18.5597 173.894411,18.5079 173.617811,18.3976 C173.430111,18.3225 173.244211,18.2474 173.048711,18.2057 C172.553511,18.1687 172.033211,18.2033 171.554011,18.2528 C170.956211,18.3154 170.511111,18.6032 169.990211,18.8649 C169.753611,18.984 169.356711,19.1676 169.161811,18.8798 C169.008011,18.6509 169.058111,18.2152 169.144511,17.9751 C169.253611,17.6729 169.633211,17.6199 169.868611,17.4292 C170.067011,17.2676 170.116511,17.0495 169.853711,16.8767 C169.738111,16.801 169.588511,16.7587 169.456811,16.72 C169.196411,16.6425 168.957411,16.6133 168.686811,16.6264 C168.173711,16.6508 167.889411,17.1556 167.411411,17.3106 C167.164111,17.391 166.900711,17.3541 166.661111,17.4619 C166.379811,17.5889 166.214111,17.8523 165.956111,18.0108 C165.647911,18.1992 165.267111,18.2492 164.911911,18.2397 C164.678911,18.2331 164.451811,18.1735 164.222911,18.1705 C164.032911,18.195 163.831411,18.2742 163.830811,18.4638 C163.829611,18.6866 164.042411,18.8464 164.209811,18.9548 C164.405311,19.0812 164.624611,19.229 164.855911,19.2665 C165.075811,19.3023 165.310611,19.192 165.516811,19.2928 C165.674711,19.3696 165.797511,19.5508 165.832711,19.7201 C165.889911,19.9984 165.729611,20.3589 166.007911,20.5497 C166.269511,20.729 166.830311,20.7499 167.125911,20.6623 C167.445411,20.5675 167.628411,20.2618 167.937011,20.1319 C168.117011,20.0556 168.311911,19.9877 168.509211,20.021 C168.969911,20.0985 169.375111,20.465 169.817911,20.6039 C170.191011,20.7207 170.769111,20.5997 171.095111,20.8268 C171.402611,21.0401 171.145811,21.4323 170.869211,21.5396 C170.630211,21.6314 170.304911,21.5682 170.053311,21.5843 C169.802411,21.6004 169.547411,21.6182 169.307811,21.7005 C168.747611,21.8912 168.310711,22.3239 167.776711,22.5766 C167.493611,22.7101 167.195711,22.8149 166.915611,22.952 C166.754611,23.0307 166.549611,23.1517 166.463211,23.3221 C166.405411,23.4359 166.417911,23.5385 166.462611,23.6326 C166.719511,23.9002 167.333911,24.0671 167.573511,24.1934 C167.988911,24.4128 168.198711,24.7555 168.418611,25.1559 C168.589611,25.4658 168.715411,25.8014 168.832211,26.1351 C168.922811,26.395 169.000911,26.6786 169.254211,26.8241 C169.416911,26.9176 169.604011,26.9295 169.770311,27.0255 C169.988411,27.15 170.328111,27.5428 170.453311,27.6942 C170.593311,27.8628 170.779211,28.3706 170.620711,28.5744 C170.478911,28.7574 170.127811,28.513 169.985411,28.4427 C169.927611,28.4141 169.625411,28.134 169.520611,28.2288 C169.410911,28.3283 169.592111,28.5124 169.641511,28.5559 C169.787511,28.6835 169.972311,28.7717 170.120711,28.898 C170.194611,28.9606 170.271511,29.0279 170.337011,29.1013 C170.605811,29.3426 170.757211,29.606 170.438311,29.8504 C170.340011,29.9261 170.207111,29.9618 170.089111,29.9928 C169.920411,30.0375 169.490111,30.0995 169.399011,30.3063 C169.251061,30.6410437 169.528502,30.6358059 169.754305,30.5971128 L169.869482,30.574532 C169.921642,30.563425 169.963511,30.553975 169.985411,30.5524 C170.127811,30.5423 170.254811,30.5668 170.382911,30.6293 C170.833511,30.8492 171.439011,31.6026 171.107011,32.1169 C170.949111,32.3612 170.629111,32.4 170.602811,32.7307 C170.588511,32.9143 170.666011,33.0663 170.614811,33.2534 C170.584411,33.3666 170.537911,33.453 170.478911,33.5156 C170.377511,33.7063 170.245311,33.7862 170.009811,33.7546 C169.527711,33.6891 169.267311,33.9709 168.955011,34.3035 C168.246911,35.0586 167.833411,36.0533 167.443011,36.9991 C167.291011,37.3668 167.140811,37.7506 166.861911,38.0432 C166.518611,38.402 166.050811,38.6475 165.642611,38.9259 C165.083511,39.3073 164.500111,39.7054 163.894611,40.0475 C163.516711,40.2751 163.106711,40.4504 162.717011,40.6595 C162.097111,40.9921 161.522611,41.4116 160.893311,41.7281 C160.396211,41.9772 159.895611,42.1298 159.336611,42.1143 C158.789511,42.0988 157.876511,42.1292 157.327611,42.451 C157.188111,42.5333 157.067711,42.6161 156.908011,42.6447 C156.602911,42.6995 156.193411,42.6924 156.043311,42.3718 C156.012811,42.3074 155.958611,41.9504 155.704711,41.9665 C155.450911,41.982 155.351311,42.5166 155.283411,42.6447 C155.188478,42.8219 155.026211,42.8566111 154.849144,42.8688926 L154.66909,42.8781442 L154.579011,42.8855 C154.096811,42.9391 153.722511,42.9701 153.264811,43.1346 C152.841711,43.286 152.443011,43.4958 152.018711,43.6471 C151.673011,43.7705 151.290411,43.8724 150.919111,43.842 C150.772511,43.8295 150.404211,43.578 150.144911,43.7276 C149.885111,43.8778 149.824911,44.1889 149.646711,44.317 C149.467911,44.4451 149.206911,44.376 149.162211,44.4457 C149.066811,44.5941 149.306411,44.8379 149.380911,44.9124 C149.489911,45.022 149.610311,45.1174 149.595411,45.2783 C149.572211,45.5352 149.322511,45.652 149.068611,45.6663 C148.954211,45.6812 148.809911,45.6568 148.725311,45.6484 C148.472611,45.624 148.274811,45.5549 148.129311,45.3588 C147.972011,45.1472 147.891011,44.8754 147.804511,44.6376 C147.727711,44.4255 147.762811,44.3206 147.936311,44.134 L147.976925,44.0923225 L148.061645,44.0066635 C148.155725,43.904159 148.215701,43.79085 148.058411,43.6477 C147.922511,43.5244 147.660911,43.5762 147.488111,43.5661 C147.320611,43.5565 147.144811,43.5542 146.978511,43.528 C146.764011,43.4946 146.569711,43.401 146.389111,43.2854 C146.258011,43.202 145.951111,42.8759 145.373611,43.0935 C145.203711,43.1579 143.947411,44.5757 143.123211,44.6007 C142.989111,44.6049 142.878811,44.5584 142.751311,44.5345 C142.346011,44.4583 142.202411,44.618 142.043311,44.916 C141.880011,45.2241 141.728011,45.5149 141.395411,45.6526 C140.908511,45.854 140.555711,46.0525 140.272711,46.5316 C139.992011,47.0078 139.807211,47.5734 139.938911,48.1229 C140.001511,48.3845 140.126611,48.6229 140.237511,48.8661 C140.244611,48.8821 140.251211,48.8994 140.258411,48.9161 C137.891454,48.9471983 135.300153,48.9926349 132.75389,49.0430578 L131.857517,49.0610459 C126.048955,49.1791166 120.644221,49.3176397 118.895811,49.3637 C118.912411,49.1122 118.911811,48.8607 118.877911,48.6062 C118.851078,48.4031167 118.81098,48.0932278 118.706636,47.838281 L118.635911,47.6932 L118.624611,47.6872 C118.439811,47.5329 118.203211,47.2736 118.109711,47.0454 C117.958911,46.6771 118.192511,46.3135 118.083411,45.9589 C117.967811,45.5817 117.585811,45.3623 117.335511,45.0811 C117.135211,44.8575 116.950511,44.6013 116.800911,44.3426 C116.427311,43.6936 116.426711,43.0333 116.477311,42.3074 C116.500511,41.9802 116.606011,41.6745 116.648311,41.3568 C116.679911,41.1208 116.537511,40.8097 116.345611,40.5999 C116.251411,40.5523 115.521911,40.3377 115.489211,40.3276 C115.212011,40.2406 115.203111,40.3723 115.212011,40.5398 C115.229311,40.8616 115.247811,41.1482 115.020211,41.411 C114.755011,41.7168 113.030811,42.3062 112.817511,42.3914 C112.672611,42.4492 111.146411,42.8783 110.748211,42.5398 C110.674311,42.4773 110.632611,42.4314 110.627911,42.3306 C110.625211,42.283275 110.66678,42.2198062 110.685961,42.1688812 L110.695211,42.1232 L110.571211,41.9141 C110.529511,41.9504 110.496111,41.9796 110.477711,41.9927 C110.344061,42.086725 110.205642,42.1747125 110.064839,42.2596891 L109.210483,42.7576297 L108.797611,43.0249 C108.542511,43.2055 108.506811,43.2848 108.506211,43.6334 C108.505611,43.8599 108.556811,43.9767 108.441211,44.1531 C108.107511,44.6621 107.358911,45.1371 106.826711,45.4088 C106.212311,45.7229 105.452411,46.0429 104.962511,46.5298 C104.529911,46.9602 104.108511,47.4322 103.625811,47.8082 C102.690111,48.5377 101.696611,49.1825 100.772311,49.9263 C96.857911,50.0729 92.943611,50.229 89.030411,50.3995 C89.155011,49.8744 89.819511,47.2891 90.652711,45.4231 C90.783211,45.1305 91.080611,44.9142 91.246311,44.6275 C91.727811,43.7926 91.850611,42.6286 91.688511,42.5595 C91.526411,42.4898 91.362511,42.8122 91.282611,42.963 C91.014411,43.4684 90.874411,44.1889 90.317111,44.4636 C90.069211,44.5858 89.809411,44.6287 89.583511,44.8093 C89.503011,44.8737 89.414211,45.0113 89.318311,45.0465 C89.227711,45.0793 89.186011,45.059 89.107911,45.0238 C88.995911,44.9738 88.734811,44.7467 88.651411,44.6263 C88.428511,44.3045 88.269411,42.5458 88.711011,42.5505 C89.259311,42.5565 89.733711,42.2061 90.047811,41.802 C90.071611,41.771 90.317711,41.4712 90.236711,41.4176 C90.214011,41.4033 89.833811,41.5922 89.793911,41.6226 C89.694311,41.6989 89.587111,41.8181 89.457711,41.8366 C89.194911,41.8741 89.021511,41.5285 88.902311,41.3354 C88.836211,41.2275 88.632311,40.5695 88.626311,40.523 C88.588811,40.2561 88.808111,40.066 88.886211,39.8258 C88.972611,39.5588 88.776511,38.9962 88.783711,38.9336 C88.806311,38.7387 89.230711,38.526 89.045911,38.3186 C88.896311,38.1511 88.121011,38.7322 87.939811,38.8108 C87.601311,38.9574 86.039811,39.5218 85.372411,39.5481 C85.147711,39.5576 84.443211,39.5957 84.053511,39.4592 C84.016511,39.4461 83.917611,39.3126 83.847311,39.1034 C80.760111,43.0017 78.006711,47.161 75.637811,51.5461 C88.868911,21.2088 119.121611,0 154.332811,0 Z M147.971238,46.1645969 L148.159711,46.1699 L149.462511,46.1699 C149.472111,46.1699 149.479811,46.1734 149.488111,46.1752 C149.885711,46.1842 150.262311,46.2223 150.322511,46.7617 C150.376711,47.248 149.616911,47.72 149.380911,48.0818 C149.271811,48.2486 149.332611,48.4793 149.209211,48.6128 C149.140711,48.6879 149.031111,48.6753 148.942811,48.7022 C148.773011,48.7546 148.665711,48.8005 148.573911,48.8601 C147.479111,48.8661 146.383711,48.8655 145.287811,48.8732 C145.268111,48.7337 145.340811,48.4715 145.352111,48.3583 C145.368811,48.1914 145.372411,48.0132 145.413511,47.8493 C145.489211,47.549 145.594111,47.3624 145.852111,47.2057 C146.185911,47.0024 146.535711,46.9405 146.812811,46.6395 C146.992211,46.4458 147.118611,46.2247 147.396911,46.1734 C147.571661,46.14085 147.777292,46.1554937 147.971238,46.1645969 Z M170.823911,38.5277 C171.105211,38.5879 171.278711,38.9896 171.238711,39.3234 C171.197011,39.6672 171.058711,39.9629 170.956811,40.2877 C170.857311,40.6035 170.881211,40.923 170.741711,41.2323 C170.406211,41.976 169.612311,42.6954 169.566411,43.5488 C169.550911,43.8343 169.442511,44.3504 169.073611,44.0912 C168.760711,43.871575 168.729791,43.4676641 168.465077,43.2096717 L168.335811,43.109 L168.170272,43.0098891 C168.033355,42.92565 167.971911,42.86595 167.892411,42.6501 C167.702811,42.134 167.761211,41.4748 168.117611,40.8336 C168.282711,40.5374 168.476411,40.2531 168.671911,39.976 C169.192211,39.2376 169.465111,39.1279 169.596211,38.9968 C169.728011,38.8657 169.846511,38.6714 169.975911,38.6005 C170.122511,38.5194 170.543211,38.4676 170.823911,38.5277 Z M183.764352,27.5058505 L183.904311,27.5106 C184.107511,27.5297 184.291111,27.6048 184.469911,27.7007 C184.623711,27.7824 184.766111,27.8605 184.945511,27.8694 C185.031911,27.8742 185.117711,27.8479 185.202311,27.8634 C185.301911,27.8813 185.394311,27.9212 185.465211,27.9969 C185.572411,28.112 185.595111,28.2907 185.635611,28.4326 C185.689811,28.6203 185.736911,28.6316 185.882411,28.7348 C186.043911,28.8498 186.157711,29.0017 186.127311,29.2074 C186.104011,29.3671 185.978911,29.519 185.909711,29.6591 C185.819811,29.8409 185.756611,30.0453 185.722011,30.2461 C185.678511,30.5012 185.742911,30.8051 185.638611,31.0453 C185.498611,31.3683 185.162411,31.6717 184.852511,31.3677 C184.772711,31.2897 184.683811,31.0054 184.593811,30.9875 C184.439511,30.9559 184.434111,31.1073 184.332211,31.1794 C184.236311,31.2468 184.172511,31.2575 184.080111,31.1705 C183.911511,31.0125 183.785711,30.618 183.723211,30.3975 C183.686211,30.2676 183.719611,30.149 183.702911,30.0226 C183.678511,29.8343 183.536011,29.8015 183.458511,29.668 C183.388211,29.5464 183.402511,29.3701 183.550911,29.3134 C183.665911,29.2687 183.806611,29.4088 183.913811,29.3677 C184.258311,29.2359 183.897811,28.761 183.773811,28.5893 C183.763711,28.575 183.753511,28.5607 183.742811,28.5464 C183.640311,28.3474 183.514611,28.3855 183.366211,28.662 C183.380511,28.7246 183.472811,28.7842 183.490711,28.8569 C183.509211,28.9296 183.521111,28.9541 183.491311,29.0232 C183.425211,29.1781 183.276211,29.1495 183.148611,29.084 C183.002011,29.0089 182.536611,28.6269 182.553211,28.3629 C182.543711,28.3479 182.538411,28.3301 182.541311,28.3086 C182.583111,28.0261 182.904311,27.8569 183.121211,27.7162 C183.280144,27.6137333 183.449122,27.5446 183.628174,27.517837 L183.764352,27.5058505 Z M189.784046,27.6035856 L189.847911,27.6072 C190.153111,27.6817 189.862811,28.0285 189.815811,28.165 C189.755011,28.342 189.852711,28.404 189.816911,28.5637 C189.791911,28.6763 189.659011,28.8027 189.582111,28.8772 C189.303811,29.149 189.222811,29.1251 188.909311,28.9433 C188.787111,28.8718 188.610111,28.7741 188.484411,28.8325 C188.407511,28.8682 188.338311,29.0166 188.279911,29.0798 C188.158411,29.2121 188.017711,29.3736 187.851411,29.4505 C187.516511,29.6048 187.227511,29.3647 187.012311,29.1281 C186.934211,29.0417 186.831111,28.9308 186.752511,28.8092 C186.713111,28.7604 186.676811,28.7085 186.648811,28.6519 C186.627911,28.6078 186.621911,28.5726 186.622511,28.5387 C186.547511,28.345 186.837111,28.1763 186.975411,28.0631 C187.098711,27.9624 187.219111,27.8396 187.387811,27.8402 C187.684611,27.8408 187.874111,28.0351 188.188211,27.8616 C188.476611,27.7013 188.663111,27.5595 188.995111,27.715 C189.229911,27.8259 189.283611,27.8074 189.522011,27.6954 C189.570611,27.67284 189.642827,27.636996 189.714057,27.6170928 L189.784046,27.6035856 Z M181.728071,27.8288076 L181.785711,27.8378 C181.807711,27.8426 181.821411,27.8545 181.829711,27.8694 C181.885211,27.8938 181.917911,27.9594 181.915611,28.0368 C181.910211,28.1972 181.847611,28.3754 181.752311,28.5041 C181.675411,28.6078 181.541311,28.7425 181.399411,28.727 C181.278511,28.7139 181.182511,28.5869 181.242711,28.4731 C181.285011,28.3938 181.372611,28.3503 181.425111,28.2782 C181.490011,28.1888 181.468611,28.097 181.489411,27.9952 C181.510697,27.8895571 181.583411,27.8384041 181.672751,27.8293137 L181.728071,27.8288076 Z M195.043011,20.5598 C195.210511,20.7136 195.394111,20.8494 195.562111,21.0044 C195.745111,21.1742 195.810011,21.3638 195.936411,21.5706 C196.056811,21.7678 196.234411,21.9132 196.327911,22.1314 C196.438811,22.39 196.469211,22.7089 196.502011,22.9824 C196.525811,23.1785 196.488911,23.3186 196.390511,23.4926 C196.283811,23.6839 196.205211,23.818 196.217711,24.0468 C196.226611,24.2083 196.283811,24.3442 196.345211,24.4849 C196.355911,24.4986 196.365511,24.5129 196.378011,24.5266 C196.519311,24.6917 196.662311,24.7781 196.713511,24.9998 C196.802911,25.3818 196.600911,25.7435 196.832711,26.0964 C197.050911,26.4283 197.264811,26.4981 197.069911,26.9242 C196.975811,27.1304 196.596111,27.8366 196.334511,27.7407 C196.189111,27.6876 196.294011,27.4516 196.222511,27.3152 C196.084811,27.0511 196.018611,27.1405 195.850011,27.1799 C195.675311,27.221 195.536511,26.9993 195.411311,27.3217 C195.360111,27.4534 195.417311,27.6852 195.265911,27.712 C195.060911,27.7478 194.876211,27.3736 194.460811,27.5172 C194.308211,27.5696 194.218211,27.6793 194.052511,27.6679 C193.952411,27.6614 193.861811,27.6316 193.773611,27.5863 C193.550711,27.4731 193.445811,27.1703 193.186011,27.1983 C193.033411,27.215 192.896311,27.243 192.765211,27.1423 C192.671711,27.0696 192.628111,26.9605 192.571511,26.8598 C192.525011,26.7782 192.268211,26.51 192.075111,26.9117 C192.047111,26.9701 192.122811,27.1328 192.132311,27.1459 C192.255711,27.3098 192.494711,27.3509 192.631711,27.5041 C192.712211,27.5952 192.800411,27.7126 192.697311,27.8086 C192.676761,27.8277 192.634886,27.8341 192.592561,27.835875 L192.485111,27.8354 C192.425511,27.836 192.370111,27.8384 192.315311,27.842 C192.135911,27.9361 192.040511,28.109 191.986911,28.2949 C191.951711,28.4177 191.930911,28.5625 191.801511,28.6203 C191.497611,28.7568 191.034511,28.3438 190.832511,28.1596 C190.582811,27.932 190.425411,27.7281 190.545211,27.3861 C190.642411,27.1083 190.688911,26.9063 190.284211,26.8574 C190.104811,26.836 189.935011,26.8848 189.753811,26.8485 C189.539211,26.8056 189.355711,26.6971 189.135811,26.7108 C188.913511,26.7245 187.548111,27.0946 187.161311,27.0613 C187.002211,27.0475 186.947311,26.9516 186.805511,26.9105 C186.467611,26.8133 186.466411,27.1238 186.257211,27.2371 C185.911611,27.4248 185.732211,27.0785 185.424011,27.013 C185.155911,26.9564 184.761311,27.1113 184.522911,26.9486 C184.397811,26.8634 184.405511,26.5416 184.595611,26.3562 C184.782811,26.1733 185.054511,26.0833 185.282211,25.9611 C185.756011,25.7066 186.285811,25.3383 186.821011,25.2412 C187.232811,25.1661 187.703011,25.2572 188.116711,25.2894 C188.535011,25.321 188.954011,25.3443 189.373011,25.3723 C189.606611,25.3884 189.886111,25.3836 190.076811,25.5403 C190.099711,25.5592857 190.120727,25.5787592 190.14065,25.5982542 L190.253384,25.7117539 C190.328219,25.7826204 190.41084,25.8389143 190.551811,25.8508 C190.753211,25.8669 190.907011,25.7686 191.018411,25.6273 C190.884911,25.4247 190.876011,25.169 190.983311,24.9241 C191.078611,24.7078 191.338511,24.5612 191.259211,24.3007 C191.218111,24.163 191.093511,24.104 191.103111,23.9443 C191.131711,23.4771 191.961811,23.2518 191.799111,23.8418 C191.639411,24.4241 192.218711,24.4926 192.666911,24.371 C193.140111,24.2429 193.520911,23.9819 193.808811,23.5838 C194.118111,23.1564 194.167611,22.7727 194.116311,22.2607 C194.102611,22.1284 194.125211,21.9955 194.110911,21.8638 C194.085311,21.6302 193.981011,21.5694 193.802811,21.4537 C193.484011,21.2475 193.362411,21.0783 193.318311,20.6927 C193.289111,20.4436 193.280811,20.1259 193.530411,20.0449 C193.662211,20.0026 193.726511,20.0699 193.800411,20.1414 C193.868411,20.2076 193.974511,20.3715 194.097211,20.3053 C194.220011,20.2392 193.964911,20.0646 193.975611,19.8488 C193.977411,19.8148 193.997711,19.785 194.030511,19.7755 C194.416711,19.6652 194.807611,20.3429 195.043011,20.5598 Z M178.051311,26.6292 C178.185411,26.6709 178.683611,26.827 178.526311,27.0422 C178.457711,27.1352 178.293911,27.1626 178.190211,27.1828 C178.053111,27.2096 177.913611,27.2257 177.774211,27.2156 C177.616811,27.2043 177.495211,27.0767 177.514311,26.9218 L177.504049,26.902825 L177.500011,26.8789 C177.500011,26.8664 177.502411,26.8592 177.504211,26.8527 C177.536411,26.56 177.806911,26.5535 178.051311,26.6292 Z M182.060411,25.7716 C182.111011,25.7734 182.160511,25.8044 182.192711,25.8628 C182.263011,25.9891 182.248111,26.1852 182.189111,26.3139 C182.128911,26.4456 181.983511,26.529 181.857211,26.4325 C181.726011,26.333 181.713511,26.1745 181.754111,26.0255 C181.772511,25.9551 181.802311,25.8848 181.859511,25.8371 C181.896511,25.8061 181.975211,25.7775 181.993111,25.7698 C182.017511,25.7585 182.040711,25.762 182.060411,25.7716 Z M192.906511,16.0262 C193.439911,16.3034 193.935111,16.6496 194.441111,16.9721 C194.888711,17.2569 195.305211,17.5841 195.751011,17.8708 C195.890511,17.9608 195.986411,18.0418 196.168811,17.9918 C196.275511,17.9619 196.360111,17.8821 196.467411,17.8595 C196.620511,17.8273 196.689111,17.8696 196.790411,17.9906 C196.932211,18.1592 196.907811,18.2605 197.074111,18.4185 C197.170011,18.5103 197.508511,18.7123 197.546711,18.8583 C197.623611,19.1569 197.206411,19.145 197.035911,19.1378 C196.732011,19.1259 196.384611,19.046 196.180111,19.3512 C196.088411,19.4883 196.119411,19.6766 195.951911,19.7487 C195.683111,19.8643 195.293911,19.5014 195.108611,19.3476 C194.773011,19.0717 194.534711,18.8631 194.069211,18.841 C193.889811,18.8321 193.654411,18.8625 193.474411,18.7987 C193.427911,18.7939 193.381511,18.7784 193.330211,18.7588 C193.302811,18.7403 193.275411,18.7212 193.249711,18.7004 C193.174711,18.6432 193.128211,18.6217 193.106111,18.633 C193.081711,18.6348 193.058411,18.6456 193.048311,18.6682 C192.975611,18.8339 193.137111,18.8964 193.272411,18.9405 C193.629411,19.0579 193.846911,19.3678 193.633511,19.5538 C193.394011,19.7642 192.980411,19.7576 192.809911,19.4787 C192.689511,19.2838 192.664511,19.1313 192.519711,18.9441 C192.419611,18.8154 192.274111,18.6438 192.261011,18.4715 C192.256311,18.4107 192.290811,18.3589 192.296211,18.2981 C192.307511,18.1693 192.233611,18.0752 192.228811,17.9542 C192.224711,17.8565 192.242011,17.7558 192.331311,17.6955 C192.570911,17.5352 192.920811,18.0132 193.104311,17.7641 C193.233711,17.5889 192.976211,17.1961 192.903511,17.0245 C192.814111,16.8141 192.698511,16.6443 192.548311,16.472 C192.386211,16.2861 192.228311,16.0668 192.379011,15.9345 C192.529811,15.8016 192.814711,15.9786 192.906511,16.0262 Z M198.140759,17.5613417 L198.217811,17.5668 C198.354811,17.5817 198.535411,17.6092 198.645711,17.6985 C198.651011,17.7033 198.653411,17.7081 198.657611,17.7129 C198.826911,17.8684 198.224911,18.2164 198.118211,18.2635 C198.008611,18.3112 197.822011,18.3529 197.749911,18.2212 C197.675411,18.0853 197.775011,17.8368 197.840511,17.7123 C197.893778,17.6117667 197.973755,17.5732333 198.067793,17.5636333 L198.140759,17.5613417 Z M192.989911,14.814 C193.097211,14.8641 193.184811,14.938 193.268811,15.0208 C193.368911,15.1198 193.570411,15.3295 193.420811,15.4678 C193.273011,15.6049 193.042911,15.3802 192.943411,15.2795 C192.853411,15.1883 192.687711,15.022 192.703311,14.8754 C192.699111,14.8558 192.703311,14.8361 192.713411,14.8194 C192.719911,14.7938 192.740811,14.7741 192.766411,14.7646 C192.835011,14.739 192.929111,14.7854 192.989911,14.814 Z M53.764911,109.8834 C53.764911,111.410257 53.2946163,112.684597 52.0091827,113.504714 L51.810211,113.6243 L51.810211,113.6714 C54.353811,113.8556 55.437211,115.5183 55.437211,117.9922 C55.437211,121.7164 52.257111,123.1176 49.007311,123.3095 L45.451236,123.5225 L41.895611,123.7427 L41.895611,105.9721 C44.093511,105.8338 46.291511,105.6991 48.489411,105.5692 C51.644511,105.3826 53.764911,106.49 53.764911,109.8834 Z M256.256911,105.2432 C258.978244,105.395733 261.700022,105.5544 264.421355,105.719526 L268.502911,105.9721 L268.502911,109.884 L266.595786,109.7651 L264.687911,109.648 L264.687911,123.5067 L262.380286,123.367812 L260.071911,123.232 L260.071911,109.3733 L258.164786,109.2633 L256.256911,109.1551 L256.256911,105.2432 Z M239.956911,104.4029 C242.257911,104.5107 244.558911,104.6234 246.859911,104.7408 C250.369911,104.919 253.030911,106.7385 253.030911,110.533 C253.030911,112.9842 251.664911,115.0302 249.144911,115.3467 C251.004911,117.8706 252.866911,120.3987 254.726911,122.9287 C252.810911,122.8232 250.895911,122.7207 248.979911,122.6205 L246.800411,119.0907 L244.620911,115.5636 L244.574911,115.5613 L244.574911,122.397 L242.265536,122.283712 L239.956911,122.1735 L239.956911,104.4029 Z M70.536811,104.3981 L70.536811,108.3107 L67.7914985,108.44165 L65.046711,108.5771 L65.046711,111.5462 L67.650211,111.41805 L70.253711,111.2935 L70.253711,115.206 L67.650211,115.330587 L65.046711,115.4587 L65.046711,118.5232 L67.7914985,118.38775 L70.536811,118.2568 L70.536811,122.1694 L65.482811,122.413737 L60.429711,122.6724 L60.429711,104.9017 C63.798111,104.7241 67.167211,104.5566 70.536811,104.3981 Z M226.072773,103.217483 L226.336911,103.2246 C231.450911,103.4255 236.163911,107.4101 236.163911,112.784 C236.163911,118.5357 232.040911,122.3994 226.336911,122.1741 C220.633911,121.9495 216.508911,117.7604 216.508911,112.0087 C216.508911,106.820107 220.903413,103.272693 225.80948,103.21711 L226.072773,103.217483 Z M80.597411,103.9535 L80.597411,121.7248 L78.287786,121.821862 L75.978611,121.922 L75.978611,104.1508 C77.518011,104.0834 79.057411,104.0173 80.597411,103.9535 Z M94.337511,103.438 L94.337511,115.4343 C94.337511,119.1824 92.380311,121.7433 88.444511,121.8887 C86.464711,121.962 84.932511,121.0317 83.872811,119.4476 C84.760211,118.4773 85.648211,117.5083 86.535611,116.5392 C87.053511,117.227 87.784811,118.0005 88.397411,117.9779 C89.6068572,117.933581 89.7095508,116.657145 89.7171473,115.677914 L89.717511,103.5995 C91.256911,103.5435 92.796911,103.4898 94.337511,103.438 Z M206.561127,102.674244 L206.796911,102.6775 C208.589911,102.7288 210.780911,103.3599 212.360911,104.3063 C211.747911,105.4816 211.134911,106.6562 210.521911,107.8321 C209.673911,107.0985 208.589911,106.5943 207.457911,106.5615 C206.609911,106.537 205.476911,107.0001 205.476911,107.99 C205.476911,109.027 206.726911,109.4633 207.528911,109.7457 C207.920911,109.8751 208.313911,110.0044 208.706911,110.1337 C211.182911,110.9377 213.091911,112.2488 213.091911,115.1244 C213.091911,116.8926 212.667911,118.6931 211.252911,119.8511 C209.861911,120.9858 207.999911,121.425 206.208911,121.3743 C203.968911,121.3112 201.775911,120.4995 199.961911,119.1818 C200.620911,117.9564 201.280911,116.7323 201.940911,115.5082 C203.096911,116.5511 204.463911,117.4129 206.043911,117.4576 C207.127911,117.488 208.282911,116.9797 208.282911,115.7311 C208.282911,114.4343 206.467911,113.933 205.476911,113.6231 C202.578911,112.7173 200.667911,111.9169 200.667911,108.4757 C200.667911,105.029776 203.014543,102.782094 206.328377,102.678016 L206.561127,102.674244 Z M104.472611,103.1239 L104.472611,120.8952 L102.162161,120.9618 L99.852611,121.0311 L99.852611,103.2598 C101.392011,103.2127 102.932011,103.1674 104.472611,103.1239 Z M142.195211,101.8682 C145.850311,101.842 148.680011,103.4827 150.212811,106.8017 C148.750911,107.4185 147.289011,108.0371 145.827011,108.6575 C145.189911,106.9638 143.845411,105.8397 141.983011,105.8529 C138.941211,105.8755 137.361311,108.7928 137.361311,111.5027 C137.361311,114.2602 139.012111,117.047 142.054511,117.0244 C144.058211,117.01 145.591011,115.9653 145.780011,113.9134 L143.893461,113.9244 L142.006911,113.9372 L142.006911,110.3072 C145.064211,110.2851 148.122111,110.2702 151.179511,110.2636 C151.131811,112.8567 150.944011,115.0719 149.363511,117.2925 C147.618511,119.7259 145.001611,120.7974 142.030111,120.8195 C136.442311,120.8606 132.551211,117.1197 132.551211,111.5331 C132.551211,105.7593 136.465511,101.9099 142.195211,101.8682 Z M127.836511,102.6185 L127.836511,120.3892 C126.295911,120.4124 124.755911,120.4381 123.215311,120.4655 C120.393411,116.8861 117.572111,113.3126 114.751311,109.7463 L114.727236,109.7469 L114.703611,109.7475 L114.703611,120.6365 L112.393136,120.689775 L110.083111,120.7462 L110.083111,102.9749 C111.623111,102.9368 113.163011,102.8998 114.703611,102.8659 L118.935724,108.208 L123.168211,113.56 L123.215311,113.5594 L123.215311,102.6948 C124.755911,102.6674 126.295911,102.6418 127.836511,102.6185 Z M185.202911,102.6603 L190.260836,102.751662 L195.318311,102.8569 L195.318311,106.7689 L192.571511,106.71045 L189.824711,106.6556 L189.824711,109.6248 L192.429961,109.677125 L195.035211,109.7326 L195.035211,113.6458 L192.429961,113.589825 L189.824711,113.5379 L189.824711,116.6018 L192.571511,116.656712 L195.318311,116.7156 L195.318311,120.6282 L190.260836,120.522687 L185.202911,120.4315 L185.202911,102.6603 Z M166.576411,102.4469 C168.879211,102.4612 171.182111,102.4803 173.485511,102.5035 C176.998711,102.5392 179.662711,104.2503 179.662711,108.0449 C179.662711,110.4961 178.295011,112.5981 175.772211,113.0164 C177.634611,115.4653 179.497711,117.9171 181.360711,120.3719 C179.442811,120.3439 177.525011,120.3189 175.607111,120.2974 L173.425899,116.856625 L171.244611,113.4181 L171.197611,113.4175 L171.197611,120.2527 L168.886786,120.2338 L166.576411,120.2176 L166.576411,102.4469 Z M46.982211,116.0761 L46.746586,116.090375 L46.511411,116.1042 L46.511411,119.9232 L47.099611,119.8874 C48.465611,119.8046 50.773211,119.7414 50.773211,117.7854 C50.773211,115.6399 48.489411,115.985 46.982211,116.0761 Z M221.316911,112.2017 C221.316911,115.2656 223.578911,117.5863 226.336911,117.6954 C229.093911,117.8045 231.356911,115.6613 231.356911,112.5981 C231.356911,110.1468 229.093911,107.8106 226.336911,107.7022 C223.578911,107.5937 221.317911,109.7505 221.316911,112.2017 Z M46.9753615,109.195088 L46.841011,109.2028 L46.511411,109.2231 L46.511411,112.6636 C46.683611,112.6529 46.856411,112.6428 47.029311,112.6326 C48.253411,112.5587 49.525211,112.2721 49.525211,110.7637 C49.525211,109.195386 48.1896719,109.12989 46.9753615,109.195088 Z M244.574911,108.1611 L244.574911,112.5921 C244.723911,112.5993 244.872911,112.607 245.021911,112.6142 C246.529911,112.6893 248.225911,112.4938 248.225911,110.5616 C248.225911,108.6283 246.529911,108.2582 245.021911,108.1831 C244.872911,108.176 244.723911,108.1688 244.574911,108.1611 Z M171.197611,106.0174 L171.197611,110.4484 C171.347111,110.4496 171.496711,110.4508 171.645711,110.452 C173.155311,110.4657 174.852611,110.2011 174.852611,108.2689 C174.852611,106.400043 173.266578,106.05648 171.797227,106.023819 L171.645711,106.0215 L171.197611,106.0174 Z M288.904111,62.154072 L288.986911,62.1544 L296.090911,62.8088 C296.314911,62.8299556 296.492294,62.9985481 296.530351,63.2153383 L296.537911,63.2987 L296.680911,93.6885 L312.678911,95.1635 C312.904689,95.1847444 313.082269,95.3532679 313.121051,95.5687774 L313.128911,95.6516 L313.162911,103.1793 C313.162911,103.3182 313.104911,103.4517 313.002911,103.5441 C312.910911,103.6293 312.791911,103.6752 312.670911,103.6752 L312.647161,103.6743 L312.624911,103.6734 L289.114911,101.5053 C288.890911,101.484056 288.713528,101.314979 288.675471,101.099768 L288.667911,101.0171 L288.448911,62.6479 C288.446911,62.509 288.505911,62.3767 288.608911,62.2838 C288.670711,62.2262 288.744391,62.186852 288.823471,62.16716 L288.904111,62.154072 Z M29.301511,61.7212 C29.404611,61.8153 29.464211,61.947 29.464211,62.0859 L29.572711,85.0666 C29.602511,91.2271 27.729911,101.7472 14.868911,102.9958 C14.144211,103.0667 13.436811,103.103 12.765111,103.103 C4.53291104,103.103 0.15611104,97.8251 0.10791104,87.8396 L1.10395209e-05,64.8572 C-0.00118896048,64.6039 0.19251104,64.3899 0.44581104,64.3661 L7.61171104,63.6676 C7.75241104,63.6509 7.88771104,63.6992 7.99141104,63.7928 C8.09331104,63.8869 8.15351104,64.0186 8.15351104,64.1569 L8.26011104,86.861 C8.28401104,91.8583 10.183911,94.3935 13.910011,94.3935 C14.199011,94.3935 14.499411,94.3774 14.812311,94.3482 C19.196211,93.9203 21.405511,90.9428 21.379911,85.4939 L21.272611,62.7904 C21.272611,62.5347 21.465111,62.3219 21.718411,62.2969 L28.923711,61.5966 C29.059511,61.5829 29.199011,61.6282 29.301511,61.7212 Z M263.361911,60.2819 L269.071911,60.7027 C269.263911,60.7158 269.429911,60.8427 269.497911,61.0239 L283.869911,100.3038 C283.927911,100.4599 283.901911,100.6351 283.800911,100.7692 C283.707911,100.8926 283.561911,100.9653 283.406911,100.9653 L283.370911,100.9635 L275.209911,100.3646 C275.014911,100.3502 274.847911,100.2239 274.781911,100.0403 L272.037911,92.4089 L258.770911,91.4363 L255.964911,98.6053 C255.886911,98.8067 255.693911,98.9324 255.469911,98.9175 L248.634911,98.4151 C248.478911,98.4044 248.336911,98.3186 248.253911,98.1863 C248.169911,98.0534 248.152911,97.8883 248.212911,97.7429 L262.868911,60.5942 C262.945911,60.3934 263.136911,60.2658 263.361911,60.2819 Z M67.884111,58.7723 C68.019411,58.7669 68.154111,58.8104 68.253611,58.9046 C68.332811,58.97756 68.386027,59.075288 68.4041454,59.1813488 L68.411011,59.2622 L68.589111,97.1773 C68.590711,97.4093 68.431758,97.6046383 68.2143006,97.6577543 L68.130211,97.6708 L61.775411,98.113 C61.640931,98.11868 61.511059,98.07636 61.4132382,97.99116 L61.346311,97.9193 L43.843211,74.7271 L43.956511,98.8913 C43.9585555,99.1222333 43.7996518,99.3184012 43.5830427,99.3712934 L43.499311,99.3842 L37.309011,99.8157 C37.297711,99.8169 37.285711,99.8169 37.275011,99.8169 C37.150411,99.8169 37.031311,99.7704 36.939511,99.6858 C36.860311,99.61092 36.807863,99.512744 36.788567,99.4069392 L36.780411,99.3264 L36.602211,61.4125 C36.602211,61.1798778 36.7603938,60.9840753 36.9785029,60.9304424 L37.062911,60.9172 L44.703811,60.3868 C44.835891,60.37776 44.966435,60.422096 45.0646206,60.5082368 L45.131711,60.5805 L61.340311,81.9782 L61.236611,59.6984 C61.235011,59.4669333 61.393095,59.2707852 61.6095164,59.2166398 L61.693211,59.2032 L67.884111,58.7723 Z M229.000911,57.2186 C234.104911,57.4933 240.196911,60.1198 243.043911,61.8159 C243.168911,61.8904 243.252244,62.0133722 243.277129,62.1526407 L243.284911,62.2379 L243.323911,70.7042 C243.325911,70.886 243.226911,71.0523 243.065911,71.1399 C242.905911,71.2257 242.713911,71.2192 242.559911,71.1196 C240.807911,69.97 234.652911,66.1945 228.982911,65.89 C226.975911,65.7857 225.975911,66.3161 225.537911,66.7577 C225.120911,67.1773 225.058911,67.61 225.061911,67.8299 C225.065911,68.7542 225.971911,69.6857 227.828911,70.678 C228.943911,71.2823 230.371911,71.8831 231.880911,72.5184 C237.701911,74.9649 245.673911,78.316 245.711911,86.3682 C245.729911,89.9565 244.687911,92.8303 242.618911,94.9084 C240.199911,97.337 236.525911,98.5689 231.693911,98.5689 C231.172911,98.5689 230.641911,98.5528 230.095911,98.5242 C224.240911,98.2107 218.123911,94.5508 216.388911,93.4364 C216.271411,93.3614 216.191411,93.2408444 216.168008,93.1055204 L216.160911,93.0228 L216.119911,84.2787 C216.118911,84.0963 216.217911,83.93 216.378911,83.8424 C216.538911,83.7566 216.734911,83.7656 216.886911,83.8675 C222.186911,87.4064 227.253911,89.7003 230.113911,89.854 C232.827911,90.0006 234.616911,89.6061 235.516911,88.702 C235.960911,88.2568 236.174911,87.6894 236.171911,86.9713 C236.165911,86.1149 235.292911,85.2829 233.417911,84.3526 C232.318911,83.7924 230.999911,83.2518 229.602911,82.6797 C223.696911,80.2559 215.604911,76.9381 215.561911,67.9902 C215.548911,64.9984 216.490911,62.5263 218.364911,60.643 C220.771911,58.2258 224.642911,56.9874 229.000911,57.2186 Z M85.656611,58.0172 C85.795411,58.0112 85.923611,58.0583 86.020711,58.1513 C86.100391,58.22522 86.151015,58.321988 86.1680774,58.4267048 L86.174511,58.5065 L86.352711,96.3036 C86.3552888,96.5377333 86.1921777,96.7360741 85.9700619,96.78653 L85.884211,96.7983 L77.690211,97.2071 L77.666411,97.2071 C77.538811,97.2071 77.418511,97.1594 77.324911,97.0736 C77.246671,96.9992 77.196335,96.902336 77.1777942,96.7972928 L77.169911,96.7172 L76.950011,58.9219 C76.9489444,58.6877667 77.1112752,58.489821 77.3328478,58.4391016 L77.418511,58.4272 L85.656611,58.0172 Z M177.416511,56.4838 L198.225411,57.1084 C205.126911,57.3169 209.103911,61.7158 209.137911,69.1804 C209.171911,76.3672 205.316911,79.3673 201.836911,80.6093 L210.589911,95.6218 C210.679911,95.7762 210.679911,95.9681 210.587911,96.1224 C210.498911,96.272 210.337911,96.3638 210.164911,96.3638 L210.149911,96.3638 L200.352911,96.0694 C200.180911,96.064 200.027911,95.9711 199.939911,95.8245 L191.652511,81.542 L186.279211,81.3811 L186.344811,95.1367 C186.344811,95.2708 186.290511,95.3983 186.195811,95.4931 C186.099811,95.5855 185.963911,95.629 185.835811,95.6325 L177.566111,95.3846 C177.300911,95.3763 177.089311,95.1587 177.087511,94.8947 L176.909311,56.9784 C176.909311,56.8449 176.963611,56.7162 177.056511,56.6238 C177.154911,56.5291 177.275911,56.4737 177.416511,56.4838 Z M130.943911,56.4623 C131.135211,56.4665 131.270511,56.5398 131.368211,56.6787 C131.443011,56.7907 131.467955,56.927532 131.441046,57.0568376 L131.411111,57.1519 L114.889011,95.44 C114.824125,95.5907714 114.689664,95.6968 114.532417,95.7277324 L114.452111,95.7368 L108.024011,95.9264 L108.010311,95.9264 C107.840168,95.9264 107.686703,95.8410286 107.59639,95.7025283 L107.556711,95.629 L91.449411,58.3009 C91.382711,58.1513 91.397011,57.9779 91.485811,57.8408 C91.556371,57.73016 91.665843,57.653888 91.790419,57.62504 L91.886311,57.6125 L101.300211,57.3348 C101.495382,57.3414857 101.640595,57.4203184 101.729173,57.5594589 L101.768711,57.634 L112.253611,81.9991 L123.083011,56.9784 C123.147897,56.8287429 123.28324,56.7219918 123.441809,56.6904525 L123.522811,56.6811 L130.943911,56.4623 Z M167.241511,56.4003 C167.483022,56.4003 167.684632,56.5726259 167.726874,56.8026572 L167.735011,56.8914 L167.768911,64.2505 C167.768911,64.3816 167.717711,64.5067 167.627111,64.5997 C167.556461,64.67035 167.468767,64.7168125 167.374239,64.7356281 L167.277811,64.7451 L146.166211,64.769 L146.197111,71.308 L160.380111,71.2937 C160.620555,71.2937 160.82102,71.4665 160.863863,71.6957938 L160.872311,71.7842 L160.907511,79.1998 C160.907511,79.3297 160.856311,79.4561 160.763911,79.5491 C160.690471,79.6239 160.596039,79.67246 160.493466,79.688892 L160.415211,79.6951 L146.237111,79.7106 L146.269911,86.8044 L167.621711,86.7806 C167.863311,86.7806 168.06343,86.9534 168.107025,87.1835366 L168.115811,87.2723 L168.151611,94.6873 C168.152111,94.8191 168.099111,94.9436 168.007911,95.0372 C167.933991,95.11152 167.837607,95.160368 167.735501,95.1769344 L167.658111,95.1832 L137.171211,95.216 C136.930144,95.216 136.729137,95.0435951 136.686602,94.8136165 L136.678311,94.7249 L136.453011,56.9284 C136.451811,56.7973 136.503111,56.6703 136.596611,56.5779 C136.670051,56.50358 136.765251,56.455116 136.867517,56.4387032 L136.945311,56.4325 L167.241511,56.4003 Z M265.492911,74.5232 L262.009911,83.2965 L268.863911,83.7995 L265.492911,74.5232 Z M186.156411,65.1152 L186.195211,73.0649 L192.910611,73.2675 C193.212111,73.2759 193.504811,73.2812 193.782511,73.2812 L193.784311,73.2812 C196.252811,73.2812 197.705211,72.926 198.494811,72.1328 C199.120011,71.5052 199.397111,70.5147 199.388211,68.9205 C199.379211,67.1242 199.034211,65.502 194.950611,65.3786 L186.156411,65.1152 Z" id="Combined-Shape" fill="#FFFFFF"></path>
    </g>
</svg>